<?xml version="1.0" encoding="UTF-8"?>
<svg id="Layer_2" data-name="Layer 2" xmlns="http://www.w3.org/2000/svg" viewBox="0 0 587.52 322.47">
  <defs>
    <style>
      .cls-1 {
        stroke: #fff;
        stroke-miterlimit: 10;
        stroke-width: 3.32px;
      }

      .cls-1, .cls-2 {
        fill: #fff;
      }

      .cls-2 {
        stroke-width: 0px;
      }
    </style>
  </defs>
  <g id="Layer_2-2" data-name="Layer 2">
    <g>
      <circle class="cls-1" cx="130.48" cy="129.14" r="42.2"/>
      <circle class="cls-2" cx="456.5" cy="129.14" r="42.2"/>
      <path class="cls-2" d="m587.52,131.89c0-34.81-13.61-67.51-38.31-92.06C524.71,15.48,492,1.76,457.1,1.2c-34.61-.55-68.52,13.03-93.31,37.31h0s-165.57,164.22-165.57,164.22c-18.56,17.18-42.33,26.63-66.94,26.63-13.6,0-26.74-2.72-39.05-8.09-35.85-15.58-59.02-50.91-59.02-90,0-54.08,43.99-98.07,98.07-98.07,24.37,0,47.73,9,65.79,25.35l4.69,3.92c13.16,10.94,25.11,22.62,38.26,35.66l7.88,7.82,23.38-23.58-7.88-7.82c-13.71-13.6-26.22-25.82-40.42-37.62l-3.75-3.12C195.07,12.01,163.84,0,131.28,0,58.89,0,0,58.89,0,131.28c0,52.32,31,99.6,78.97,120.45,16.51,7.2,34.11,10.85,52.31,10.85,33.12,0,64.99-12.68,89.74-35.69l.2-.18L386.02,63.23c18.56-18.74,44.25-29.24,70.55-28.83,54.81.88,97.74,43.7,97.74,97.48s-43.73,97.48-97.48,97.48c-25.06,0-48.73-9.25-66.69-26.05l-47.92-49.52-23.86,23.09,48.2,49.81.54.54c16.47,15.52,42.15,26.27,63.89,31.57l23.67,63.67h7.16l24.54-64.71c55.03-15.39,101.16-65.99,101.16-125.87Z"/>
    </g>
  </g>
</svg>