<?xml version="1.0" encoding="UTF-8"?>
<svg id="Layer_2" data-name="Layer 2" xmlns="http://www.w3.org/2000/svg" viewBox="0 0 729.03 699.99">
  <defs>
    <style>
      .cls-1 {
        stroke-width: 62.36px;
      }

      .cls-1, .cls-2 {
        fill: none;
        stroke: #fff;
        stroke-linecap: round;
        stroke-linejoin: round;
      }

      .cls-2 {
        isolation: isolate;
        stroke-width: 83.67px;
      }
    </style>
  </defs>
  <g id="Layer_1-2" data-name="Layer 1">
    <path class="cls-1" d="m531.18,564.52h-133.33l-148.33,98.67c-22,14.67-51.67-1-51.67-27.67v-71c-100,0-166.67-66.67-166.67-166.67v-200C31.18,97.85,97.85,31.18,197.85,31.18h333.33c100,0,166.67,66.67,166.67,166.67v200c0,100-66.67,166.67-166.67,166.67Z"/>
    <path class="cls-2" d="m347.51,364.85v-11.71c0-37.93,23.43-58.01,46.86-74.19,22.87-15.62,45.74-35.7,45.74-72.51,0-51.32-41.28-92.6-92.6-92.6s-92.6,41.28-92.6,92.6"/>
    <path class="cls-2" d="m347.27,498.18h.5"/>
  </g>
</svg>