<?xml version="1.0" encoding="UTF-8"?>
<svg id="Layer_2" data-name="Layer 2" xmlns="http://www.w3.org/2000/svg" viewBox="0 0 697.85 668.81">
  <defs>
    <style>
      .cls-1 {
        stroke: #999;
        stroke-width: 31.18px;
      }

      .cls-1, .cls-2 {
        fill: none;
        stroke-linecap: round;
        stroke-linejoin: round;
      }

      .cls-2 {
        isolation: isolate;
        stroke: #fff;
        stroke-width: 83.67px;
      }
    </style>
  </defs>
  <g id="Layer_1-2" data-name="Layer 1">
    <path class="cls-1" d="m515.59,548.92h-133.33l-148.33,98.67c-22,14.67-51.67-1-51.67-27.67v-71c-100,0-166.67-66.67-166.67-166.67v-200C15.59,82.26,82.26,15.59,182.26,15.59h333.33c100,0,166.67,66.67,166.67,166.67v200c0,100-66.67,166.67-166.67,166.67Z"/>
    <path class="cls-2" d="m331.92,349.26v-11.71c0-37.93,23.43-58.01,46.86-74.19,22.87-15.62,45.74-35.7,45.74-72.51,0-51.32-41.28-92.6-92.6-92.6s-92.6,41.28-92.6,92.6"/>
    <path class="cls-2" d="m331.68,482.58h.5"/>
  </g>
</svg>