<?xml version="1.0" encoding="UTF-8"?>
<svg id="Layer_2" data-name="Layer 2" xmlns="http://www.w3.org/2000/svg" viewBox="0 0 417.21 489.82">
  <defs>
    <style>
      .cls-1 {
        fill: #fff;
        stroke-width: 0px;
      }
    </style>
  </defs>
  <g id="Layer_1-2" data-name="Layer 1">
    <path class="cls-1" d="m396.57,190.82c-42-87-136-131-226-115l24-45c6-10,2-23-8-28-10-6-23-2-28,8l-49,91s-11,18,6,26l91,49c3,2,7,3,10,3,7,0,15-4,18-11,6-10,2-23-8-28l-47-26c71-12,145,24,178,92,40,83,5,183-78,222-40,19-85,22-127,7s-76-45-95-85-22-85-7-127c4-11-2-23-13-27-10-2-22,4-26,15-18,53-15,109,9,159s66,88,119,107c23,8,46,12,69,12,31,0,62-7,90-21,104-50,148-175,98-278h0Z"/>
  </g>
</svg>