<?xml version="1.0" encoding="utf-8"?>
<!-- Generator: Adobe Illustrator 28.0.0, SVG Export Plug-In . SVG Version: 6.00 Build 0)  -->
<svg version="1.1" id="Layer_1" xmlns="http://www.w3.org/2000/svg" xmlns:xlink="http://www.w3.org/1999/xlink" x="0px" y="0px"
	 viewBox="0 0 242.6 246.4" style="enable-background:new 0 0 242.6 246.4;" xml:space="preserve">
<style type="text/css">
	.st0{fill:#FFFFFF;}
	.st1{fill:#FFFFFF;stroke:#FFFFFF;stroke-width:8.6343;stroke-miterlimit:10;}
</style>
<path class="st0" d="M0.3,154.3c13.3,53.3,64.2,92.7,119.2,92c67.1,0.7,123.9-56.1,123.2-123.2C242.3,25.6,134.4-33,52.4,19.9
	L42,5.2c-1.6-2.3-5.1-2-6.2,0.6L15.8,49c-1.2,2.5,0.8,5.4,3.6,5.1l47.4-4.3c2.8-0.2,4.2-3.4,2.6-5.7l-7.8-11
	c70-45.8,165.6,6.4,164.9,90.2c-2.9,125.4-176.4,147.5-210.8,27.1c-1.1-4.3-5.5-6.9-9.8-5.8C1.7,145.7-0.9,150.1,0.3,154.3z"/>
<polygon class="st1" points="166.2,120 166.2,185.9 109.1,153 52,120 109.1,87 166.2,54 "/>
</svg>
