<?xml version="1.0" encoding="UTF-8"?>
<svg id="Layer_2" data-name="Layer 2" xmlns="http://www.w3.org/2000/svg" viewBox="0 0 649.61 649.63">
  <defs>
    <style>
      .cls-1 {
        fill: #fff;
        stroke-width: 0px;
      }
    </style>
  </defs>
  <g id="_24x24_On_Light_Settings" data-name=" 24x24 On Light Settings">
    <path id="Shape" class="cls-1" d="m233.15,648.7c-25.21-7.14-49.5-17.21-72.37-30-8.33-4.72-13.27-13.77-12.73-23.33l4.4-68.9c.09-1.44-.45-2.85-1.47-3.87l-23.57-23.6c-.94-.93-2.21-1.44-3.53-1.43h-.33l-69.17,4.3h-1.57c-9.05,0-17.38-4.9-21.8-12.8-12.8-22.92-22.87-47.27-30-72.53-2.56-9.25.36-19.16,7.53-25.53l51.97-45.87c1.07-.96,1.68-2.33,1.67-3.77v-33.03c0-1.44-.6-2.81-1.67-3.77l-52.07-45.87c-7.18-6.37-10.11-16.28-7.53-25.53,7.14-25.27,17.21-49.63,30-72.57,4.43-7.87,12.77-12.74,21.8-12.73h1.57l69.17,4.3h.33c1.32-.01,2.59-.54,3.53-1.47l23.33-23.33c1.01-1.02,1.53-2.43,1.43-3.87l-4.23-69.1c-.55-9.57,4.39-18.62,12.73-23.33,22.94-12.79,47.29-22.86,72.57-30,9.25-2.6,19.17.33,25.53,7.53l45.87,51.83c.96,1.07,2.33,1.67,3.77,1.67h32.93c1.44.02,2.81-.59,3.77-1.67l45.9-51.97c6.36-7.2,16.28-10.13,25.53-7.53,25.27,7.13,49.61,17.2,72.53,30,8.37,4.7,13.32,13.75,12.77,23.33l-4.3,69.17c-.1,1.43.43,2.84,1.43,3.87l23.33,23.33c.96.93,2.23,1.46,3.57,1.47h.3l69.17-4.3h1.4c9.03,0,17.36,4.87,21.8,12.73,12.8,22.93,22.87,47.29,30,72.57,2.58,9.25-.34,19.16-7.53,25.53l-51.73,45.93c-1.08.96-1.69,2.33-1.7,3.77v32.93c0,1.44.62,2.81,1.7,3.77l51.97,45.87c7.19,6.37,10.11,16.28,7.53,25.53-7.12,25.27-17.19,49.62-30,72.53-4.42,7.89-12.75,12.79-21.8,12.8h-1.57l-69.17-4.3h-.33c-1.32-.01-2.59.5-3.53,1.43l-23.33,23.33c-1,1.03-1.52,2.43-1.43,3.87l4.3,69.17c.63,9.6-4.35,18.69-12.77,23.33-22.86,12.81-47.15,22.88-72.37,30-9.26,2.65-19.22-.28-25.57-7.53l-45.7-51.9c-.95-1.09-2.32-1.71-3.77-1.7h-33.33c-1.44,0-2.81.62-3.77,1.7l-45.87,52c-6.36,7.2-16.28,10.13-25.53,7.53h0Zm-70.4-185.13l23.6,23.57c11.19,11.18,17.02,26.65,16,42.43l-3.33,52.73c10.68,5.24,21.68,9.8,32.93,13.63l35.17-39.8c10.45-11.83,25.48-18.6,41.27-18.6h33.33c15.8,0,30.83,6.8,41.27,18.67l34.97,39.7c11.27-3.85,22.28-8.42,32.97-13.67l-3.33-53c-.97-15.76,4.87-31.17,16.03-42.33l23.33-23.33c10.35-10.27,24.32-16.05,38.9-16.1h3.33l53,3.33c5.28-10.74,9.87-21.81,13.73-33.13l-39.8-35.17c-11.83-10.45-18.6-25.48-18.6-41.27v-32.9c0-15.79,6.77-30.81,18.6-41.27l39.8-35.17c-3.85-11.33-8.44-22.4-13.73-33.13l-53,3.33h-3.33c-14.62.04-28.65-5.77-38.97-16.13l-23.33-23.33c-11.16-11.15-17-26.55-16.03-42.3l3.33-53c-10.75-5.26-21.82-9.86-33.13-13.77l-35.17,40c-10.45,11.83-25.48,18.6-41.27,18.6h-32.97c-15.79,0-30.81-6.77-41.27-18.6l-35.13-39.9c-11.32,3.91-22.38,8.51-33.13,13.77l3.33,53c.97,15.75-4.87,31.15-16.03,42.3l-23.33,23.33c-10.3,10.37-24.32,16.18-38.93,16.13h-3.33l-53-3.33c-5.26,10.75-9.86,21.82-13.77,33.13l40,35.17c11.72,10.47,18.4,25.45,18.37,41.17v32.93c0,15.79-6.77,30.81-18.6,41.27l-40,35.17c3.9,11.32,8.5,22.38,13.77,33.13l53-3.33h3.33c14.68-.13,28.8,5.66,39.17,16.07Zm3.53-138.93c0-87.45,70.89-158.33,158.33-158.33s158.33,70.89,158.33,158.33-70.89,158.33-158.33,158.33c-87.4-.11-158.22-70.93-158.33-158.33h0Zm50,0c0,59.83,48.5,108.33,108.33,108.33s108.33-48.5,108.33-108.33-48.5-108.33-108.33-108.33c-59.8.07-108.26,48.53-108.33,108.33h0Z"/>
  </g>
</svg>