<?xml version="1.0" encoding="UTF-8"?>
<svg id="Layer_2" data-name="Layer 2" xmlns="http://www.w3.org/2000/svg" viewBox="0 0 242.6 246.39">
  <defs>
    <style>
      .cls-1 {
        fill: #fff;
        stroke-width: 0px;
      }
    </style>
  </defs>
  <g id="Layer_1-2" data-name="Layer 1">
    <g>
      <path class="cls-1" d="m6.01,144.55c4.29-1.12,8.67,1.46,9.79,5.75,34.37,120.48,207.81,98.3,210.75-27.06.7-83.75-94.88-135.92-164.88-90.17l7.79,11.05c1.61,2.28.14,5.44-2.63,5.69l-47.4,4.29c-2.78.25-4.78-2.6-3.61-5.13L35.79,5.78c1.17-2.53,4.64-2.84,6.25-.57l10.36,14.7c82.01-52.88,189.94,5.69,190.19,103.32.71,67.04-56.1,123.86-123.15,123.15-54.96.68-105.9-38.77-119.18-92.04-1.12-4.29,1.46-8.67,5.74-9.79Z"/>
      <g>
        <path class="cls-1" d="m103.13,159.36h-14.05v-52.93c-5.13,4.8-11.18,8.35-18.14,10.65v-12.75c3.67-1.2,7.65-3.47,11.95-6.82,4.3-3.35,7.25-7.26,8.85-11.72h11.4v73.58Z"/>
        <path class="cls-1" d="m147.87,85.78c7.1,0,12.65,2.53,16.65,7.6,4.77,6,7.15,15.95,7.15,29.84s-2.4,23.83-7.2,29.89c-3.97,5-9.5,7.5-16.6,7.5s-12.88-2.74-17.24-8.22c-4.37-5.48-6.55-15.25-6.55-29.32s2.4-23.73,7.2-29.79c3.97-5,9.5-7.5,16.6-7.5Zm0,11.65c-1.7,0-3.22.54-4.55,1.62-1.33,1.08-2.37,3.02-3.1,5.82-.97,3.63-1.45,9.75-1.45,18.34s.43,14.5,1.3,17.72c.87,3.22,1.96,5.36,3.27,6.42,1.32,1.07,2.82,1.6,4.52,1.6s3.22-.54,4.55-1.62c1.33-1.08,2.37-3.02,3.1-5.82.97-3.6,1.45-9.7,1.45-18.29s-.43-14.5-1.3-17.72c-.87-3.22-1.96-5.36-3.27-6.45-1.32-1.08-2.82-1.62-4.52-1.62Z"/>
      </g>
    </g>
  </g>
</svg>